<?xml version="1.0" encoding="iso-8859-1"?>
<!-- Generator: Adobe Illustrator 19.0.0, SVG Export Plug-In . SVG Version: 6.00 Build 0)  -->
<svg version="1.1" id="Capa_1" xmlns="http://www.w3.org/2000/svg" xmlns:xlink="http://www.w3.org/1999/xlink" x="0px" y="0px"
	 viewBox="0 0 512 512" style="enable-background:new 0 0 512 512;" xml:space="preserve">
<g>
	<g>
		<path d="M473.6,0H38.4C17.229,0,0,17.229,0,38.4v435.2C0,494.771,17.229,512,38.4,512h435.2c21.171,0,38.4-17.229,38.4-38.4V38.4
			C512,17.229,494.771,0,473.6,0z M494.933,473.6c0,11.767-9.566,21.333-21.333,21.333H38.4c-11.759,0-21.333-9.566-21.333-21.333
			V38.4c0-11.768,9.574-21.333,21.333-21.333h435.2c11.759,0,21.333,9.566,21.333,21.333V473.6z"/>
	</g>
</g>
<g>
	<g>
		<path d="M76.8,34.133H42.667c-4.71,0-8.533,3.814-8.533,8.533V76.8c0,4.719,3.823,8.533,8.533,8.533H76.8
			c4.71,0,8.533-3.814,8.533-8.533V42.667C85.333,37.948,81.51,34.133,76.8,34.133z M68.267,68.267H51.2V51.2h17.067V68.267z"/>
	</g>
</g>
<g>
	<g>
		<path d="M145.067,34.133h-34.133c-4.71,0-8.533,3.814-8.533,8.533V76.8c0,4.719,3.823,8.533,8.533,8.533h34.133
			c4.71,0,8.533-3.814,8.533-8.533V42.667C153.6,37.948,149.777,34.133,145.067,34.133z M136.533,68.267h-17.067V51.2h17.067V68.267
			z"/>
	</g>
</g>
<g>
	<g>
		<path d="M213.333,34.133H179.2c-4.71,0-8.533,3.814-8.533,8.533V76.8c0,4.719,3.823,8.533,8.533,8.533h34.133
			c4.71,0,8.533-3.814,8.533-8.533V42.667C221.867,37.948,218.044,34.133,213.333,34.133z M204.8,68.267h-17.067V51.2H204.8V68.267z
			"/>
	</g>
</g>
<g>
	<g>
		<path d="M473.6,0H38.4C17.229,0,0,17.229,0,38.4v72.533c0,4.719,3.823,8.533,8.533,8.533h494.933c4.71,0,8.533-3.814,8.533-8.533
			V38.4C512,17.229,494.771,0,473.6,0z M494.933,102.4H17.067v-64c0-11.768,9.574-21.333,21.333-21.333h435.2
			c11.759,0,21.333,9.566,21.333,21.333V102.4z"/>
	</g>
</g>
<g>
	<g>
		<path d="M298.24,188.169c-11.29-11.281-26.283-17.502-42.24-17.502s-30.959,6.221-42.24,17.502
			c-11.281,11.281-17.493,26.274-17.493,42.232s6.212,30.95,17.161,41.882l36.207,40.602c1.613,1.809,3.934,2.85,6.366,2.85
			s4.753-1.041,6.374-2.85l36.045-40.422c11.162-11.273,17.314-26.197,17.314-42.061C315.733,214.443,309.53,199.45,298.24,188.169z
			 M286.174,260.565c-0.12,0.119-0.23,0.23-0.341,0.35L256,294.383l-30.174-33.818c-8.055-8.055-12.493-18.773-12.493-30.165
			c0-11.392,4.437-22.11,12.501-30.165c8.055-8.055,18.773-12.501,30.165-12.501c11.392,0,22.118,4.446,30.174,12.501
			s12.493,18.773,12.493,30.165C298.667,241.792,294.229,252.51,286.174,260.565z"/>
	</g>
</g>
<g>
	<g>
		<path d="M264.653,204.8h-17.306c-9.344,0-16.947,7.603-16.947,16.956v17.297c0,9.344,7.603,16.947,16.947,16.947h17.306
			c9.344,0,16.947-7.603,16.947-16.956v-17.297C281.6,212.403,273.997,204.8,264.653,204.8z M264.533,238.933l-17.067,0.119v-17.186
			h17.067V238.933z"/>
	</g>
</g>
<g>
	<g>
		<path d="M469.333,136.533H42.667c-4.71,0-8.533,3.814-8.533,8.533v196.267c0,4.719,3.823,8.533,8.533,8.533h426.667
			c4.71,0,8.533-3.814,8.533-8.533V145.067C477.867,140.348,474.044,136.533,469.333,136.533z M460.8,332.8H51.2V153.6h409.6V332.8z
			"/>
	</g>
</g>
<g>
	<g>
		<path d="M204.8,366.933H42.667c-4.71,0-8.533,3.814-8.533,8.533v93.867c0,4.719,3.823,8.533,8.533,8.533H204.8
			c4.71,0,8.533-3.814,8.533-8.533v-93.867C213.333,370.748,209.51,366.933,204.8,366.933z M196.267,460.8H51.2V384h145.067V460.8z"
			/>
	</g>
</g>
<g>
	<g>
		<path d="M108.433,412.1c-3.328-3.337-8.738-3.337-12.066,0l-25.6,25.6c-3.337,3.337-3.337,8.73,0,12.066
			c1.664,1.664,3.849,2.5,6.033,2.5c2.185,0,4.369-0.836,6.033-2.5l25.6-25.6C111.77,420.83,111.77,415.437,108.433,412.1z"/>
	</g>
</g>
<g>
	<g>
		<path d="M134.033,437.7l-25.6-25.6c-3.328-3.337-8.738-3.337-12.066,0c-3.337,3.337-3.337,8.73,0,12.066l25.6,25.6
			c1.664,1.664,3.849,2.5,6.033,2.5s4.369-0.836,6.033-2.5C137.37,446.43,137.37,441.037,134.033,437.7z"/>
	</g>
</g>
<g>
	<g>
		<path d="M151.1,403.567c-3.328-3.337-8.738-3.337-12.066,0l-25.6,25.6c-3.337,3.337-3.337,8.73,0,12.066
			c1.664,1.664,3.849,2.5,6.033,2.5s4.369-0.836,6.033-2.5l25.6-25.6C154.436,412.297,154.436,406.903,151.1,403.567z"/>
	</g>
</g>
<g>
	<g>
		<path d="M176.7,429.167l-25.6-25.6c-3.328-3.337-8.738-3.337-12.066,0c-3.337,3.337-3.337,8.73,0,12.066l25.6,25.6
			c1.664,1.664,3.849,2.5,6.033,2.5c2.185,0,4.369-0.836,6.033-2.5C180.036,437.897,180.036,432.503,176.7,429.167z"/>
	</g>
</g>
<g>
	<g>
		<path d="M452.267,392.533h-51.2c-14.114,0-25.6,11.486-25.6,25.6s11.486,25.6,25.6,25.6h51.2c14.114,0,25.6-11.486,25.6-25.6
			S466.381,392.533,452.267,392.533z M452.267,426.667h-51.2c-4.702,0-8.533-3.823-8.533-8.533s3.831-8.533,8.533-8.533h51.2
			c4.702,0,8.533,3.823,8.533,8.533S456.969,426.667,452.267,426.667z"/>
	</g>
</g>
<g>
	<g>
		<path d="M341.333,401.067h-102.4c-4.71,0-8.533,3.814-8.533,8.533s3.823,8.533,8.533,8.533h102.4c4.71,0,8.533-3.814,8.533-8.533
			S346.044,401.067,341.333,401.067z"/>
	</g>
</g>
<g>
	<g>
		<path d="M341.333,435.2h-102.4c-4.71,0-8.533,3.814-8.533,8.533c0,4.719,3.823,8.533,8.533,8.533h102.4
			c4.71,0,8.533-3.814,8.533-8.533C349.867,439.014,346.044,435.2,341.333,435.2z"/>
	</g>
</g>
</svg>
